HIERARCHY
ROOT Hips
{
	OFFSET 72.100998 -19.263716 93.811600
	CHANNELS 6 Xposition Yposition Zposition Xrotation Yrotation Zrotation
	JOINT spine
	{
		OFFSET 0.000000 -0.448574 7.800583
		CHANNELS 3 Xrotation Yrotation Zrotation
		JOINT spine1
		{
			OFFSET 0.000000 -0.000002 10.136398
			CHANNELS 3 Xrotation Yrotation Zrotation
			JOINT spine2
			{
				OFFSET 0.000000 0.000000 9.712509
				CHANNELS 3 Xrotation Yrotation Zrotation
				JOINT Neck
				{
					OFFSET 0.000000 -1.188875 24.936096
					CHANNELS 3 Xrotation Yrotation Zrotation
					JOINT Head
					{
						OFFSET 0.000000 0.000000 7.533844
						CHANNELS 3 Xrotation Yrotation Zrotation
						End Site
						{
							OFFSET 0.000000 6.014017 18.236099
						}
					}
				}
				JOINT RightShoulder
				{
					OFFSET -4.089653 0.569454 10.488800
					CHANNELS 3 Xrotation Yrotation Zrotation
					JOINT RightArm
					{
						OFFSET 0.000000 -0.000002 13.757004
						CHANNELS 3 Xrotation Yrotation Zrotation
						JOINT RightArmRoll
						{
							OFFSET 0.000000 -0.000002 6.944778
							CHANNELS 3 Xrotation Yrotation Zrotation
							JOINT RightForeArm
							{
								OFFSET 0.000000 -0.000004 20.227692
								CHANNELS 3 Xrotation Yrotation Zrotation
								JOINT RightForeArmRoll
								{
									OFFSET 0.000000 0.000000 7.793121
									CHANNELS 3 Xrotation Yrotation Zrotation
									JOINT RightHand
									{
										OFFSET 0.000000 -0.000004 15.639099
										CHANNELS 3 Xrotation Yrotation Zrotation
										End Site
										{
											OFFSET 0.000000 0.000000 0.100006
										}
									}
								}
							}
						}
					}
				}
				JOINT LeftShoulder
				{
					OFFSET 4.089653 0.569454 10.488800
					CHANNELS 3 Xrotation Yrotation Zrotation
					JOINT LeftArm
					{
						OFFSET 0.000000 -0.000002 13.757004
						CHANNELS 3 Xrotation Yrotation Zrotation
						JOINT LeftArmRoll
						{
							OFFSET 0.000000 -0.000002 6.944778
							CHANNELS 3 Xrotation Yrotation Zrotation
							JOINT LeftForeArm
							{
								OFFSET 0.000000 -0.000004 20.227692
								CHANNELS 3 Xrotation Yrotation Zrotation
								JOINT LeftForeArmRoll
								{
									OFFSET 0.000000 0.000000 7.793121
									CHANNELS 3 Xrotation Yrotation Zrotation
									JOINT LeftHand
									{
										OFFSET 0.000000 -0.000004 15.639099
										CHANNELS 3 Xrotation Yrotation Zrotation
										End Site
										{
											OFFSET 0.000000 0.000000 0.100006
										}
									}
								}
							}
						}
					}
				}
			}
		}
	}
	JOINT RightUpLeg
	{
		OFFSET -6.914154 1.063580 -1.267883
		CHANNELS 3 Xrotation Yrotation Zrotation
		JOINT RightUpLegRoll
		{
			OFFSET 0.000000 -0.000002 18.337799
			CHANNELS 3 Xrotation Yrotation Zrotation
			JOINT RightLeg
			{
				OFFSET 0.000000 0.000002 -22.708496
				CHANNELS 3 Xrotation Yrotation Zrotation
				JOINT RightLegRoll
				{
					OFFSET 0.000000 -0.000002 22.782799
					CHANNELS 3 Xrotation Yrotation Zrotation
					JOINT RightFoot
					{
						OFFSET 0.000000 -0.000004 18.962898
						CHANNELS 3 Xrotation Yrotation Zrotation
						JOINT RightToeBase
						{
							OFFSET 0.000000 -0.000002 15.852005
							CHANNELS 3 Xrotation Yrotation Zrotation
							End Site
							{
								OFFSET 0.006721 0.884892 7.677017
							}
						}
					}
				}
			}
		}
	}
	JOINT LeftUpLeg
	{
		OFFSET 6.914154 1.063580 -1.267883
		CHANNELS 3 Xrotation Yrotation Zrotation
		JOINT LeftUpLegRoll
		{
			OFFSET 0.000000 -0.000002 18.337898
			CHANNELS 3 Xrotation Yrotation Zrotation
			JOINT LeftLeg
			{
				OFFSET 0.000000 -0.000004 22.708397
				CHANNELS 3 Xrotation Yrotation Zrotation
				JOINT LeftLegRoll
				{
					OFFSET 0.000000 -0.000004 22.993393
					CHANNELS 3 Xrotation Yrotation Zrotation
					JOINT LeftFoot
					{
						OFFSET 0.000000 -0.000004 18.752197
						CHANNELS 3 Xrotation Yrotation Zrotation
						JOINT LeftToeBase
						{
							OFFSET 0.000000 -0.000002 15.852005
							CHANNELS 3 Xrotation Yrotation Zrotation
							End Site
							{
								OFFSET -0.030113 0.884892 7.677002
							}
						}
					}
				}
			}
		}
	}
}
MOTION
Frames: 12
Frame Time: 0.041667
56.464394 -9.011498 94.034096 -2.154094 1.418108 -1.301755 1.812778 0.260380 0.242455 7.627356 0.529768 0.473695 9.272467 0.535406 0.467317 -7.762602 27.734962 4.092869 -1.221290 -28.840204 0.456237 -4.282669 -33.977510 -2.206225 145.585195 -5.904988 68.638354 -0.000023 0.000001 -0.000001 64.502428 -23.622143 16.274710 -0.000006 0.000008 -3.003680 -5.000208 -7.999518 -0.000099 -10.692038 69.428764 13.168980 -58.225915 112.874156 45.481492 -0.000000 -0.000000 -0.000000 33.145002 2.260427 0.855885 -0.000001 -0.000004 3.000000 -5.000201 7.999849 -0.000032 -4.226301 -177.358197 -0.811592 -179.999991 0.000005 -0.953995 169.642351 -0.396437 -0.737452 0.000001 0.000001 -0.022076 68.173614 5.957262 4.564109 25.457701 -7.346328 0.001187 -7.906219 178.739084 4.919399 -0.000005 -0.000004 -1.388990 -16.825778 6.277971 1.107249 -0.000006 0.000004 -0.270253 75.120415 -8.034270 1.860061 25.456959 7.355616 -0.000010 
56.457996 -9.000361 94.027802 -2.158150 1.420253 -1.271254 1.817146 0.262277 0.243143 7.636099 0.532564 0.474989 9.281200 0.538221 0.468577 -7.771203 27.795260 4.161356 -1.193541 -28.893339 0.520994 -4.266996 -33.882659 -2.171524 145.598337 -5.821332 68.625042 -0.000025 -0.000002 -0.000000 64.517823 -23.638127 16.281720 -0.000008 0.000009 -3.003679 -5.000210 -7.999518 -0.000097 -10.745961 69.452464 13.230235 -58.355893 112.925840 45.594969 -0.000000 0.000000 -0.000001 33.183784 2.230553 0.856041 0.000003 -0.000004 3.000001 -5.000200 7.999848 -0.000032 -4.242609 -177.350288 -0.794073 -179.999991 0.000005 -0.953995 169.587832 -0.415056 -0.738272 0.000000 0.000001 -0.020077 68.208660 5.963367 4.547895 25.457701 -7.346327 0.001187 -7.918098 178.738141 4.916799 -0.000004 -0.000004 -1.389030 -16.850176 6.279179 1.108916 -0.000006 0.000005 -0.270814 75.128878 -8.036028 1.867235 25.456965 7.355617 -0.000010 
56.463493 -9.023378 94.023598 -2.161885 1.422247 -1.241096 1.821417 0.264239 0.243838 7.644635 0.535380 0.476300 9.289738 0.541057 0.469854 -7.779980 27.857145 4.229771 -1.165314 -28.948387 0.585608 -4.250980 -33.787006 -2.136246 145.611847 -5.736867 68.611286 -0.000026 -0.000001 -0.000000 64.534503 -23.653478 16.288365 -0.000008 0.000006 -3.003680 -5.000207 -7.999516 -0.000095 -10.799327 69.477210 13.290908 -58.484567 112.977237 45.706796 -0.000000 -0.000000 -0.000000 33.224062 2.200599 0.856226 0.000002 -0.000004 3.000000 -5.000202 7.999850 -0.000032 -4.259174 -177.342351 -0.776578 -179.999991 0.000005 -0.955006 169.533587 -0.433669 -0.740108 0.000000 0.000001 -0.018127 68.243166 5.969404 4.531794 25.457701 -7.346326 0.001186 -7.929916 178.737185 4.914266 -0.000004 -0.000004 -1.389060 -16.873873 6.280505 1.110563 -0.000006 0.000004 -0.271382 75.136821 -8.037880 1.874361 25.456964 7.355616 -0.000010 
56.466694 -9.020496 94.019203 -2.165387 1.424123 -1.211188 1.825619 0.266245 0.244541 7.653018 0.538209 0.477623 9.298130 0.543906 0.471141 -7.788889 27.920111 4.298138 -1.136745 -29.004818 0.650153 -4.234743 -33.690567 -2.100573 145.625521 -5.651565 68.598076 -0.000027 -0.000001 -0.000000 64.552104 -23.668419 16.294818 -0.000007 0.000007 -3.003679 -5.000209 -7.999520 -0.000097 -10.852335 69.502564 13.351194 -58.612278 113.028477 45.817414 0.000000 0.000000 -0.000001 33.265463 2.170584 0.856428 0.000003 -0.000003 3.000001 -5.000195 7.999849 -0.000033 -4.275937 -177.334428 -0.759101 -179.999991 0.000005 -0.955006 169.479670 -0.451282 -0.741807 0.000000 0.000001 -0.016210 68.277556 5.975317 4.515773 25.457698 -7.346327 0.001187 -7.941675 178.737226 4.911636 -0.000005 -0.000004 -1.389080 -16.897277 6.281898 1.112214 -0.000006 0.000004 -0.271954 75.144546 -8.039744 1.881567 25.456959 7.355616 -0.000010 
56.474388 -9.026169 94.018295 -2.168770 1.425948 -1.181425 1.829779 0.268278 0.245246 7.661332 0.541045 0.478951 9.306433 0.546763 0.472435 -7.797875 27.983568 4.366473 -1.107957 -29.061946 0.714666 -4.218397 -33.593831 -2.064712 145.639304 -5.566263 68.583849 -0.000026 0.000000 -0.000001 64.570300 -23.683044 16.301076 -0.000008 0.000007 -3.003681 -5.000206 -7.999518 -0.000098 -10.905145 69.528239 13.411292 -58.741130 113.079150 45.929300 -0.000000 0.000000 0.000000 33.307356 2.140544 0.856681 -0.000001 -0.000004 3.000001 -5.000198 7.999848 -0.000032 -4.292804 -177.326519 -0.741634 -179.999991 0.000005 -0.955006 169.425943 -0.469882 -0.742711 0.000001 0.000001 -0.014313 68.311734 5.981161 4.500048 25.457700 -7.346327 0.001187 -7.953416 178.737253 4.909033 -0.000004 -0.000004 -1.389079 -16.920272 6.283340 1.113844 -0.000006 0.000004 -0.272528 75.152080 -8.041676 1.888955 25.456960 7.355616 -0.000010 
56.478588 -9.031038 94.019203 -2.172115 1.427744 -1.151683 1.833926 0.270316 0.245951 7.669625 0.543884 0.480280 9.314728 0.549624 0.473728 -7.806895 28.047222 4.434825 -1.079087 -29.119186 0.779242 -4.202074 -33.497078 -2.028865 145.653197 -5.480937 68.570605 -0.000026 0.000001 -0.000000 64.588591 -23.697587 16.307384 -0.000009 0.000007 -3.003681 -5.000206 -7.999515 -0.000097 -10.958073 69.554098 13.471513 -58.867433 113.130452 46.038269 -0.000000 0.000000 0.000001 33.349570 2.110496 0.856975 -0.000002 -0.000004 3.000001 -5.000199 7.999849 -0.000032 -4.309703 -177.318596 -0.724173 -179.999991 0.000005 -0.956002 169.372217 -0.487496 -0.744478 0.000000 0.000001 -0.012421 68.345912 5.987007 4.484116 25.457698 -7.346328 0.001187 -7.965155 178.737294 4.906433 -0.000004 -0.000004 -1.389090 -16.943275 6.284800 1.115484 -0.000006 0.000004 -0.273104 75.159518 -8.043619 1.896331 25.456962 7.355615 -0.000010 
56.477692 -9.017916 94.012299 -2.175517 1.429579 -1.121879 1.838100 0.272342 0.246655 7.677960 0.546720 0.481604 9.323058 0.552481 0.475019 -7.815896 28.110581 4.503217 -1.050289 -29.176007 0.843923 -4.185859 -33.400329 -1.993194 145.667103 -5.395598 68.556330 -0.000028 0.000001 -0.000001 64.606602 -23.712276 16.313601 -0.000008 0.000008 -3.003678 -5.000206 -7.999518 -0.000099 -11.011226 69.579622 13.531967 -58.995315 113.181425 46.149105 0.000000 0.000001 0.000000 33.391381 2.080461 0.857311 0.000000 -0.000003 3.000001 -5.000203 7.999850 -0.000033 -4.326537 -177.310659 -0.706713 -179.999991 0.000005 -0.956003 169.318381 -0.506081 -0.746450 0.000001 0.000001 -0.010519 68.380104 5.992845 4.468281 25.457700 -7.346327 0.001187 -7.976904 178.736352 4.903950 -0.000004 -0.000004 -1.389100 -16.966477 6.286225 1.117132 -0.000007 0.000004 -0.273678 75.167133 -8.045496 1.903629 25.456962 7.355616 -0.000010 
56.488197 -9.028449 94.007294 -2.179089 1.431474 -1.091907 1.842320 0.274336 0.247354 7.686383 0.549546 0.482920 9.331490 0.555328 0.476300 -7.824814 28.173147 4.571668 -1.021681 -29.231816 0.908762 -4.169891 -33.304159 -1.957919 145.680873 -5.311065 68.542437 -0.000026 -0.000001 -0.000000 64.624047 -23.727246 16.320122 -0.000008 0.000009 -3.003679 -5.000207 -7.999518 -0.000098 -11.064874 69.604702 13.592944 -59.120779 113.233110 46.257562 -0.000000 -0.000000 -0.000000 33.432512 2.050468 0.857707 0.000003 -0.000004 3.000000 -5.000198 7.999848 -0.000032 -4.343244 -177.302750 -0.689245 -179.999991 0.000005 -0.957000 169.264341 -0.523668 -0.747286 0.000001 0.000002 -0.008593 68.414522 5.998699 4.452335 25.457698 -7.346326 0.001187 -7.988680 178.736379 4.901310 -0.000005 -0.000004 -1.389110 -16.989874 6.287602 1.118779 -0.000006 0.000004 -0.274249 75.174988 -8.047348 1.910951 25.456964 7.355616 -0.000010 
56.493294 -9.042789 94.005188 -2.182922 1.433480 -1.061645 1.846619 0.276279 0.248045 7.694987 0.552358 0.484220 9.340085 0.558160 0.477565 -7.833612 28.234520 4.640222 -0.993413 -29.285925 0.973811 -4.154273 -33.208588 -1.923211 145.694547 -5.226506 68.529515 -0.000026 -0.000001 -0.000000 64.640350 -23.742810 16.326970 -0.000007 0.000009 -3.003680 -5.000205 -7.999516 -0.000097 -11.119189 69.629032 13.654614 -59.246379 113.285326 46.366384 0.000000 -0.000000 0.000000 33.472349 2.020548 0.858149 0.000002 -0.000004 3.000001 -5.000202 7.999849 -0.000033 -4.359732 -177.294840 -0.671768 -179.999991 0.000005 -0.957000 169.210014 -0.542238 -0.749332 0.000001 0.000001 -0.006629 68.449280 6.004660 4.436083 25.457698 -7.346326 0.001187 -8.000514 178.736406 4.898621 -0.000004 -0.000004 -1.389150 -17.013875 6.288889 1.120451 -0.000006 0.000005 -0.274815 75.183048 -8.049181 1.918088 25.456964 7.355616 -0.000010 
56.496197 -9.046787 94.005096 -2.187117 1.435654 -1.030997 1.851031 0.278153 0.248726 7.703803 0.555151 0.485501 9.348901 0.560970 0.478813 -7.842223 28.294124 4.708881 -0.965618 -29.337821 1.039138 -4.139122 -33.114099 -1.889272 145.707825 -5.143561 68.515390 -0.000026 0.000001 -0.000001 64.655288 -23.759061 16.334256 -0.000008 0.000007 -3.003680 -5.000208 -7.999519 -0.000097 -11.174327 69.652172 13.717144 -59.371986 113.337973 46.475612 0.000000 0.000000 -0.000001 33.510493 1.990719 0.858644 -0.000001 -0.000004 3.000001 -5.000200 7.999849 -0.000033 -4.375917 -177.286917 -0.654273 -179.999991 0.000004 -0.957997 169.155277 -0.560802 -0.750433 0.000001 0.000002 -0.004611 68.484394 6.010719 4.419631 25.457700 -7.346326 0.001187 -8.012409 178.735477 4.896012 -0.000004 -0.000004 -1.389200 -17.038475 6.290060 1.122130 -0.000006 0.000005 -0.275374 75.191613 -8.050879 1.924977 25.456960 7.355617 -0.000010 
56.502090 -9.064590 94.001503 -2.191757 1.438018 -0.999860 1.855588 0.279938 0.249395 7.712907 0.557919 0.486757 9.358006 0.563753 0.480035 -7.850591 28.351632 4.777690 -0.938445 -29.387019 1.104784 -4.124535 -33.020871 -1.856281 145.720925 -5.060611 68.501224 -0.000026 0.000001 -0.000001 64.668272 -23.776264 16.341888 -0.000008 0.000006 -3.003681 -5.000206 -7.999518 -0.000097 -11.230593 69.674002 13.780866 -59.495975 113.391836 46.583369 -0.000000 -0.000000 -0.000001 33.546542 1.961006 0.859193 -0.000000 -0.000002 3.000000 -5.000200 7.999849 -0.000033 -4.391723 -177.280005 -0.636677 -179.999991 0.000005 -0.957997 169.099938 -0.578377 -0.752371 0.000001 0.000001 -0.002525 68.520068 6.016900 4.402766 25.457696 -7.346327 0.001187 -8.024406 178.734494 4.893319 -0.000005 -0.000004 -1.389290 -17.063976 6.291075 1.123833 -0.000006 0.000004 -0.275923 75.200724 -8.052514 1.931816 25.456964 7.355617 -0.000010 
56.503696 -9.061068 93.994301 -2.196966 1.440631 -0.968129 1.860312 0.281615 0.250048 7.722351 0.560656 0.487982 9.367448 0.566503 0.481228 -7.858681 28.406487 4.846668 -0.912024 -29.432795 1.170797 -4.110638 -32.929124 -1.824420 145.733629 -4.979262 68.487871 -0.000025 0.000002 -0.000001 64.678995 -23.794555 16.350074 -0.000006 0.000008 -3.003680 -5.000207 -7.999518 -0.000097 -11.288149 69.694226 13.845932 -59.620510 113.446471 46.692300 -0.000000 0.000000 0.000001 33.580004 1.931440 0.859794 -0.000003 -0.000004 3.000002 -5.000200 7.999849 -0.000033 -4.407066 -177.272068 -0.619130 -179.999991 0.000005 -0.958995 169.043903 -0.596924 -0.754553 0.000001 0.000001 -0.000356 68.556344 6.023303 4.385507 25.457701 -7.346328 0.001187 -8.036506 178.732568 4.890655 -0.000004 -0.000004 -1.389400 -17.090482 6.291910 1.125557 -0.000006 0.000004 -0.276462 75.210546 -8.053996 1.938324 25.456959 7.355616 -0.000010 
